<svg xmlns="http://www.w3.org/2000/svg" viewBox="0 0 200 160" shape-rendering="crispEdges">
<rect width="200" height="160" fill="#F3EEE1"/>
<rect x="20" y="20" width="20" height="20" fill="#C6407E"/>
<rect x="40" y="20" width="20" height="20" fill="#6FA8D6"/>
<rect x="60" y="20" width="20" height="20" fill="#E67E22"/>
<rect x="80" y="20" width="20" height="20" fill="#E8503A"/>
<rect x="100" y="20" width="20" height="20" fill="#2F5DE0"/>
<rect x="120" y="20" width="20" height="20" fill="#7C5CFF"/>
<rect x="140" y="20" width="20" height="20" fill="#3FA34D"/>
<rect x="160" y="20" width="20" height="20" fill="#E0A32E"/>
<rect x="20" y="40" width="20" height="20" fill="#6FA8D6"/>
<rect x="160" y="40" width="20" height="20" fill="#C6407E"/>
<rect x="20" y="60" width="20" height="20" fill="#E67E22"/>
<rect x="80" y="60" width="20" height="20" fill="#E67E22"/>
<rect x="100" y="60" width="20" height="20" fill="#E67E22"/>
<rect x="160" y="60" width="20" height="20" fill="#6FA8D6"/>
<rect x="20" y="80" width="20" height="20" fill="#E8503A"/>
<rect x="80" y="80" width="20" height="20" fill="#E67E22"/>
<rect x="100" y="80" width="20" height="20" fill="#E67E22"/>
<rect x="160" y="80" width="20" height="20" fill="#E67E22"/>
<rect x="20" y="100" width="20" height="20" fill="#2F5DE0"/>
<rect x="160" y="100" width="20" height="20" fill="#E8503A"/>
<rect x="20" y="120" width="20" height="20" fill="#7C5CFF"/>
<rect x="40" y="120" width="20" height="20" fill="#3FA34D"/>
<rect x="60" y="120" width="20" height="20" fill="#E0A32E"/>
<rect x="80" y="120" width="20" height="20" fill="#C6407E"/>
<rect x="100" y="120" width="20" height="20" fill="#6FA8D6"/>
<rect x="120" y="120" width="20" height="20" fill="#E67E22"/>
<rect x="140" y="120" width="20" height="20" fill="#E8503A"/>
<rect x="160" y="120" width="20" height="20" fill="#2F5DE0"/>
<line x1="0" y1="0" x2="0" y2="160" stroke="#17171A" stroke-width="2.4"/>
<line x1="20" y1="0" x2="20" y2="160" stroke="#17171A" stroke-width="2.4"/>
<line x1="40" y1="0" x2="40" y2="160" stroke="#17171A" stroke-width="2.4"/>
<line x1="60" y1="0" x2="60" y2="160" stroke="#17171A" stroke-width="2.4"/>
<line x1="80" y1="0" x2="80" y2="160" stroke="#17171A" stroke-width="2.4"/>
<line x1="100" y1="0" x2="100" y2="160" stroke="#17171A" stroke-width="2.4"/>
<line x1="120" y1="0" x2="120" y2="160" stroke="#17171A" stroke-width="2.4"/>
<line x1="140" y1="0" x2="140" y2="160" stroke="#17171A" stroke-width="2.4"/>
<line x1="160" y1="0" x2="160" y2="160" stroke="#17171A" stroke-width="2.4"/>
<line x1="180" y1="0" x2="180" y2="160" stroke="#17171A" stroke-width="2.4"/>
<line x1="200" y1="0" x2="200" y2="160" stroke="#17171A" stroke-width="2.4"/>
<line x1="0" y1="0" x2="200" y2="0" stroke="#17171A" stroke-width="2.4"/>
<line x1="0" y1="20" x2="200" y2="20" stroke="#17171A" stroke-width="2.4"/>
<line x1="0" y1="40" x2="200" y2="40" stroke="#17171A" stroke-width="2.4"/>
<line x1="0" y1="60" x2="200" y2="60" stroke="#17171A" stroke-width="2.4"/>
<line x1="0" y1="80" x2="200" y2="80" stroke="#17171A" stroke-width="2.4"/>
<line x1="0" y1="100" x2="200" y2="100" stroke="#17171A" stroke-width="2.4"/>
<line x1="0" y1="120" x2="200" y2="120" stroke="#17171A" stroke-width="2.4"/>
<line x1="0" y1="140" x2="200" y2="140" stroke="#17171A" stroke-width="2.4"/>
<line x1="0" y1="160" x2="200" y2="160" stroke="#17171A" stroke-width="2.4"/>
</svg>